<?xml version="1.0" encoding="iso-8859-1"?>
<!-- Generator: Adobe Illustrator 18.0.0, SVG Export Plug-In . SVG Version: 6.00 Build 0)  -->
<!DOCTYPE svg PUBLIC "-//W3C//DTD SVG 1.1//EN" "http://www.w3.org/Graphics/SVG/1.1/DTD/svg11.dtd">
<svg version="1.1" id="Capa_1" xmlns="http://www.w3.org/2000/svg" xmlns:xlink="http://www.w3.org/1999/xlink" x="0px" y="0px"
	 viewBox="0 0 471.478 471.478" style="enable-background:new 0 0 471.478 471.478;" xml:space="preserve">
<g>
	<path d="M248.94,193.325h-65.17c-2.762,0-5,2.239-5,5v36.7c0,2.761,2.238,5,5,5s5-2.239,5-5v-31.7h55.484
		c0.614,7.93,1.723,15.852,3.305,23.611c0.553,2.706,3.197,4.455,5.898,3.9c2.706-0.552,4.452-3.192,3.9-5.898
		c-1.799-8.82-2.951-17.863-3.425-26.875C253.794,195.407,251.599,193.325,248.94,193.325z"/>
	<path d="M41.65,298.805c0.487,0,0.963-0.078,1.42-0.214c2.401,2.842,4.901,5.626,7.499,8.321c-0.818,1.976-0.298,4.334,1.436,5.767
		c0.932,0.771,2.061,1.146,3.183,1.146c1.432,0,2.854-0.612,3.842-1.797c0.682-0.816,1.354-1.633,1.998-2.439
		c24.68-30.517,39.233-67.166,42.247-106.264h55.496v37.58c0,2.761,2.238,5,5,5s5-2.239,5-5v-42.58c0-2.761-2.238-5-5-5H98.59
		c-2.658,0-4.853,2.081-4.993,4.735c-1.954,36.865-14.673,71.592-36.875,100.814c-2.346-2.479-4.607-5.03-6.772-7.632
		c20.008-26.983,31.592-58.852,33.591-92.622c0.081-1.375-0.408-2.723-1.353-3.725c-0.945-1.002-2.262-1.57-3.639-1.57H12.839
		c-0.052-1.667-0.079-3.338-0.079-5s0.028-3.333,0.079-5h65.711c1.377,0,2.693-0.568,3.639-1.57c0.944-1.002,1.434-2.35,1.353-3.725
		c-1.999-33.767-13.581-65.633-33.586-92.614c2.166-2.603,4.425-5.153,6.771-7.632c22.202,29.208,34.917,63.876,36.87,100.806
		c0.141,2.655,2.334,4.736,4.993,4.736h65.181c2.762,0,5-2.239,5-5V27.404c3.323-0.102,6.676-0.102,10,0v150.92c0,2.761,2.238,5,5,5
		h65.17c2.659,0,4.853-2.081,4.993-4.736c1.953-36.911,14.669-71.581,36.875-100.809c2.344,2.479,4.603,5.033,6.77,7.643
		c-20.008,26.987-31.592,58.851-33.59,92.606c-0.081,1.375,0.408,2.723,1.353,3.725c0.945,1.002,2.262,1.57,3.639,1.57h65.711
		c0.052,1.666,0.079,3.336,0.079,5s-0.028,3.334-0.079,5H268.98c-1.377,0-2.693,0.568-3.638,1.569
		c-0.944,1.002-1.435,2.349-1.354,3.724c0.584,9.956,2.044,19.928,4.339,29.638c0.635,2.688,3.329,4.353,6.017,3.715
		c2.688-0.635,4.351-3.329,3.716-6.016c-1.756-7.427-2.993-15.018-3.69-22.63h62.783c-1.051,11.576-3.322,22.998-6.77,34.027
		c-0.823,2.636,0.646,5.44,3.281,6.264c0.496,0.155,0.998,0.229,1.493,0.229c2.128,0,4.102-1.371,4.771-3.51
		c4.215-13.485,6.772-27.521,7.603-41.719c0.081-1.375-0.409-2.721-1.354-3.723c-0.431-0.456-0.945-0.809-1.5-1.073
		c0.059-1.832,0.093-3.667,0.093-5.497s-0.034-3.665-0.093-5.496c0.555-0.263,1.069-0.616,1.499-1.073
		c0.945-1.001,1.435-2.348,1.354-3.722c-2.102-36.065-15.151-70.061-37.736-98.311c-0.946-1.184-2.378-1.874-3.894-1.878
		c-0.004,0-0.008,0-0.012,0c-0.487,0-0.964,0.078-1.421,0.214c-2.406-2.854-4.926-5.634-7.527-8.332
		c0.757-1.835,0.389-4.004-1.095-5.465c-30.067-29.6-69.768-47.25-111.786-49.698c-1.388-0.081-2.722,0.41-3.723,1.354
		c-0.456,0.43-0.809,0.945-1.072,1.5c-3.654-0.116-7.339-0.116-10.992,0c-0.263-0.555-0.616-1.069-1.072-1.5
		c-1.002-0.944-2.342-1.436-3.723-1.354C121.454,17.012,81.75,34.662,51.682,64.261c-1.485,1.462-1.853,3.635-1.092,5.471
		c-2.603,2.699-5.123,5.476-7.529,8.323c-0.454-0.134-0.928-0.211-1.412-0.211c-0.004,0-0.008,0-0.012,0
		c-1.516,0.004-2.947,0.694-3.894,1.878C15.16,107.973,2.11,141.968,0.008,178.034c-0.08,1.375,0.409,2.721,1.354,3.722
		c0.427,0.453,0.938,0.804,1.489,1.067c-0.059,1.835-0.093,3.673-0.093,5.502s0.034,3.667,0.093,5.502
		c-0.551,0.263-1.062,0.614-1.489,1.067c-0.945,1.001-1.435,2.348-1.354,3.722c2.102,36.065,15.151,70.061,37.736,98.311
		c0.946,1.184,2.378,1.875,3.894,1.878C41.642,298.805,41.646,298.805,41.65,298.805z M337.155,173.325H274.37
		c2.736-29.982,13.546-58.215,31.501-82.301C323.718,115.185,334.453,143.419,337.155,173.325z M188.77,24.941
		c36.127,3.285,70.159,18.506,96.777,43.302c-24.116,30.304-38.32,66.452-41.293,105.082H188.77V24.941z M158.77,24.941v148.384
		h-55.495C100.302,134.672,86.1,98.528,61.983,68.242C88.603,43.444,122.634,28.224,158.77,24.941z M41.669,91.024
		c17.947,24.078,28.755,52.314,31.491,82.301H10.384C13.087,143.419,23.821,115.185,41.669,91.024z M10.384,203.325H73.16
		c-2.736,29.987-13.544,58.223-31.491,82.301C23.821,261.464,13.087,233.23,10.384,203.325z"/>
	<path d="M468.153,336.457C415.937,271.916,338.377,234.9,255.358,234.9c-83.018,0-160.578,37.017-212.794,101.557
		c-4.434,5.478-4.434,13.431,0,18.909c52.216,64.541,129.776,101.557,212.795,101.557c83.018,0,160.578-37.017,212.794-101.557
		C472.587,349.889,472.587,341.936,468.153,336.457z M408.538,293.867v104.09c-6.244,4.467-12.664,8.655-19.252,12.544V281.324
		C395.874,285.212,402.294,289.401,408.538,293.867z M121.431,281.323v129.177c-6.588-3.889-13.008-8.077-19.252-12.544v-104.09
		C108.424,289.4,114.843,285.212,121.431,281.323z M50.338,349.076c-1.483-1.833-1.483-4.495,0-6.328
		c12.531-15.488,26.578-29.329,41.842-41.385v89.099C76.915,378.405,62.868,364.564,50.338,349.076z M255.358,446.924
		c-43.961,0-86.323-10.796-123.927-30.824V275.724c37.604-20.029,79.966-30.824,123.928-30.824
		c43.961,0,86.323,10.796,123.927,30.824V416.1C341.682,436.128,299.32,446.924,255.358,446.924z M460.38,349.076
		C460.38,349.076,460.38,349.077,460.38,349.076c-12.531,15.489-26.578,29.33-41.842,41.386v-89.099
		c15.264,12.057,29.311,25.897,41.842,41.386C461.863,344.581,461.863,347.243,460.38,349.076z"/>
	<path d="M224.483,431.037c-3.339-0.411-6.713-0.896-10.026-1.44c-2.721-0.45-5.297,1.397-5.744,4.123
		c-0.448,2.725,1.397,5.297,4.123,5.745c3.445,0.566,6.954,1.07,10.427,1.498c0.207,0.026,0.413,0.038,0.616,0.038
		c2.489,0,4.646-1.856,4.957-4.39C229.173,433.869,227.224,431.373,224.483,431.037z"/>
	<path d="M366.484,406.968c-34.179,16.98-72.605,25.956-111.125,25.956c-1.831,0-3.66-0.02-5.485-0.059
		c-2.731-0.057-5.047,2.131-5.106,4.892c-0.06,2.761,2.131,5.047,4.892,5.106c1.896,0.041,3.797,0.061,5.7,0.061
		c40.056,0,80.021-9.336,115.574-27c2.473-1.229,3.481-4.229,2.253-6.703C371.959,406.749,368.959,405.74,366.484,406.968z"/>
	<path d="M192.557,300.135c7.416-0.61,15.172-1.1,23.137-1.471l0.196,3.266c0.159,2.655,2.361,4.701,4.986,4.701
		c0.101,0,0.202-0.003,0.305-0.009c2.756-0.166,4.856-2.534,4.691-5.291l-0.184-3.067c7.605-0.255,15.343-0.405,23.106-0.45v2.829
		c0,2.761,2.238,5,5,5s5-2.239,5-5v-2.829c7.762,0.045,15.5,0.195,23.105,0.45l-0.184,3.067c-0.165,2.756,1.936,5.125,4.691,5.291
		c0.103,0.006,0.204,0.009,0.305,0.009c2.624,0,4.827-2.046,4.986-4.701l0.196-3.266c7.965,0.371,15.721,0.861,23.137,1.471
		l-0.465,3.858c-0.331,2.742,1.624,5.232,4.365,5.563c0.203,0.025,0.405,0.037,0.604,0.037c2.494,0,4.652-1.864,4.958-4.402
		l0.5-4.144c8.33,0.847,16.095,1.86,23.091,3.037l-0.828,4.546c-0.495,2.717,1.307,5.32,4.023,5.814
		c0.303,0.055,0.604,0.082,0.901,0.082c2.369,0,4.474-1.691,4.913-4.105l5.668-31.137c0.495-2.717-1.307-5.32-4.023-5.814
		c-2.722-0.493-5.32,1.308-5.814,4.024l-0.891,4.895c-8.347-1.488-16.44-2.812-24.314-3.956l0.562-4.664
		c0.331-2.742-1.624-5.232-4.365-5.563c-2.745-0.337-5.232,1.625-5.563,4.365l-0.543,4.506c-8.337-1.079-16.467-1.956-24.463-2.632
		l0.247-4.107c0.165-2.756-1.936-5.125-4.691-5.291c-2.771-0.155-5.126,1.936-5.291,4.692l-0.238,3.956
		c-8.271-0.532-16.435-0.841-24.58-0.931v-3.769c0-2.761-2.238-5-5-5s-5,2.239-5,5v3.769c-8.145,0.09-16.309,0.399-24.581,0.931
		l-0.238-3.956c-0.165-2.756-2.521-4.848-5.291-4.692c-2.756,0.166-4.856,2.534-4.691,5.291l0.247,4.107
		c-7.995,0.676-16.126,1.553-24.462,2.632l-0.543-4.505c-0.33-2.741-2.824-4.694-5.562-4.366c-2.742,0.331-4.696,2.821-4.366,5.563
		l0.562,4.664c-7.874,1.144-15.967,2.468-24.315,3.956l-0.891-4.896c-0.494-2.717-3.096-4.519-5.814-4.023
		c-2.717,0.495-4.519,3.098-4.023,5.814l5.668,31.137c0.439,2.414,2.544,4.105,4.913,4.105c0.297,0,0.599-0.027,0.901-0.082
		c2.717-0.495,4.519-3.098,4.023-5.814l-0.828-4.546c6.995-1.178,14.761-2.191,23.091-3.037l0.5,4.144
		c0.306,2.538,2.463,4.402,4.958,4.402c0.199,0,0.401-0.012,0.604-0.037c2.741-0.331,4.696-2.821,4.365-5.563L192.557,300.135z
		 M350.243,292.228l-0.367,2.017c-7.222-1.222-15.183-2.274-23.682-3.153l0.328-2.725
		C334.205,289.484,342.101,290.777,350.243,292.228z M316.613,287.011l-0.38,3.148c-7.621-0.643-15.577-1.158-23.736-1.548
		l0.25-4.169C300.549,285.104,308.482,285.96,316.613,287.011z M282.774,283.694l-0.271,4.507
		c-7.808-0.27-15.746-0.429-23.709-0.476v-4.94C266.74,282.875,274.706,283.177,282.774,283.694z M248.795,282.785v4.94
		c-7.963,0.047-15.902,0.205-23.71,0.476l-0.271-4.507C232.883,283.177,240.849,282.875,248.795,282.785z M214.841,284.443
		l0.25,4.169c-8.159,0.39-16.115,0.905-23.736,1.548l-0.379-3.148C199.107,285.96,207.039,285.104,214.841,284.443z
		 M157.713,294.245l-0.367-2.017c8.142-1.451,16.038-2.743,23.721-3.861l0.328,2.725
		C172.896,291.971,164.935,293.022,157.713,294.245z"/>
	<path d="M211.069,34.827c-3.168-0.773-6.399-1.456-9.604-2.029c-2.722-0.488-5.316,1.323-5.802,4.042
		c-0.486,2.719,1.323,5.316,4.042,5.802c3,0.536,6.025,1.176,8.992,1.9c0.398,0.097,0.797,0.144,1.189,0.144
		c2.251,0,4.296-1.531,4.854-3.815C215.396,38.187,213.752,35.482,211.069,34.827z"/>
	<path d="M264.786,70.555c1.525,0,3.032-0.696,4.014-2.013c1.649-2.214,1.192-5.347-1.022-6.997
		c-13.057-9.728-27.453-17.342-42.788-22.629c-2.614-0.9-5.457,0.487-6.356,3.097c-0.9,2.611,0.486,5.457,3.097,6.357
		c14.36,4.951,27.843,12.082,40.073,21.194C262.7,70.232,263.747,70.555,264.786,70.555z"/>
	<path d="M119.875,44.887c-1.051-2.553-3.974-3.772-6.526-2.719c-13.659,5.624-26.472,13.152-38.081,22.375
		c-2.162,1.718-2.522,4.863-0.805,7.025c0.987,1.243,2.445,1.89,3.918,1.89c1.09,0,2.188-0.355,3.107-1.085
		c10.875-8.639,22.875-15.691,35.667-20.958C119.709,50.362,120.926,47.44,119.875,44.887z"/>
	<path d="M57.472,338.328c-1.32,0-2.61,0.53-3.54,1.46c-0.93,0.93-1.46,2.22-1.46,3.54c0,1.31,0.53,2.6,1.46,3.53
		c0.93,0.93,2.22,1.47,3.54,1.47c1.311,0,2.6-0.54,3.53-1.47c0.93-0.93,1.47-2.22,1.47-3.53c0-1.32-0.54-2.61-1.47-3.54
		C60.072,338.858,58.783,338.328,57.472,338.328z"/>
	<path d="M81.333,329.068c-0.931-0.94-2.221-1.47-3.54-1.47c-1.311,0-2.601,0.53-3.54,1.47c-0.92,0.93-1.46,2.21-1.46,3.53
		s0.54,2.61,1.46,3.53c0.939,0.94,2.229,1.47,3.54,1.47c1.319,0,2.609-0.53,3.54-1.47c0.93-0.93,1.46-2.21,1.46-3.53
		S82.262,329.998,81.333,329.068z"/>
	<path d="M71.793,346.598c-1.32,0-2.61,0.53-3.53,1.46c-0.93,0.93-1.47,2.22-1.47,3.54s0.54,2.61,1.47,3.54s2.21,1.46,3.53,1.46
		c1.319,0,2.609-0.53,3.54-1.46c0.93-0.93,1.46-2.22,1.46-3.54s-0.53-2.61-1.46-3.54C74.402,347.128,73.112,346.598,71.793,346.598z
		"/>
	<path d="M434.793,329.598c-1.311,0-2.601,0.53-3.53,1.47c-0.93,0.92-1.47,2.21-1.47,3.53s0.54,2.61,1.47,3.54s2.22,1.46,3.53,1.46
		c1.319,0,2.609-0.53,3.54-1.46c0.93-0.94,1.46-2.22,1.46-3.54s-0.53-2.6-1.46-3.53
		C437.402,330.128,436.112,329.598,434.793,329.598z"/>
	<path d="M451.793,340.598c-1.32,0-2.601,0.53-3.53,1.46c-0.93,0.93-1.47,2.22-1.47,3.54s0.54,2.61,1.47,3.54s2.22,1.46,3.53,1.46
		c1.319,0,2.609-0.53,3.54-1.46c0.93-0.93,1.46-2.22,1.46-3.54s-0.53-2.61-1.46-3.54
		C454.402,341.128,453.112,340.598,451.793,340.598z"/>
	<path d="M433.793,351.598c-1.311,0-2.601,0.53-3.53,1.46c-0.93,0.93-1.47,2.22-1.47,3.54s0.54,2.61,1.47,3.54s2.22,1.46,3.53,1.46
		c1.319,0,2.609-0.53,3.54-1.46c0.93-0.94,1.46-2.22,1.46-3.54c0-1.31-0.53-2.6-1.46-3.54
		C436.402,352.128,435.112,351.598,433.793,351.598z"/>
	<path d="M368.793,373.598c-1.32,0-2.61,0.53-3.53,1.46c-0.94,0.94-1.47,2.23-1.47,3.54c0,1.32,0.529,2.6,1.47,3.53
		c0.93,0.94,2.22,1.47,3.53,1.47c1.319,0,2.609-0.53,3.54-1.47c0.93-0.92,1.46-2.21,1.46-3.53s-0.53-2.6-1.46-3.54
		C371.402,374.128,370.112,373.598,368.793,373.598z"/>
	<path d="M368.793,351.598c1.319,0,2.609-0.53,3.54-1.46c0.93-0.94,1.46-2.22,1.46-3.54s-0.53-2.61-1.46-3.53
		c-0.931-0.94-2.221-1.47-3.54-1.47c-1.311,0-2.601,0.53-3.53,1.47c-0.94,0.93-1.47,2.21-1.47,3.53c0,1.31,0.529,2.6,1.47,3.54
		C366.192,351.068,367.482,351.598,368.793,351.598z"/>
	<path d="M298.253,349.058c-0.931,0.94-1.46,2.23-1.46,3.54c0,1.32,0.529,2.61,1.46,3.53c0.939,0.94,2.229,1.47,3.54,1.47
		c1.319,0,2.609-0.53,3.54-1.46c0.93-0.93,1.46-2.22,1.46-3.54s-0.53-2.61-1.46-3.54c-0.931-0.93-2.221-1.46-3.54-1.46
		C300.472,347.598,299.192,348.128,298.253,349.058z"/>
	<path d="M322.262,367.058c-0.93,0.93-1.47,2.22-1.47,3.54s0.54,2.6,1.47,3.54c0.93,0.93,2.21,1.46,3.53,1.46
		c1.319,0,2.609-0.53,3.54-1.46c0.93-0.94,1.46-2.22,1.46-3.54s-0.53-2.61-1.46-3.54c-0.931-0.93-2.221-1.46-3.54-1.46
		C324.472,365.598,323.192,366.128,322.262,367.058z"/>
	<path d="M270.852,259.388c1.32,0,2.61-0.53,3.54-1.47c0.93-0.93,1.46-2.21,1.46-3.53s-0.53-2.6-1.46-3.54
		c-0.93-0.93-2.22-1.46-3.54-1.46c-1.31,0-2.6,0.53-3.53,1.46c-0.93,0.93-1.47,2.22-1.47,3.54s0.54,2.61,1.47,3.53
		C268.253,258.858,269.543,259.388,270.852,259.388z"/>
	<path d="M300.932,113.788c-0.93,0.93-1.46,2.22-1.46,3.54c0,1.32,0.53,2.6,1.46,3.53c0.93,0.93,2.22,1.47,3.54,1.47
		c1.311,0,2.6-0.54,3.53-1.47c0.93-0.93,1.47-2.22,1.47-3.53c0-1.32-0.54-2.61-1.47-3.54c-0.931-0.93-2.22-1.46-3.53-1.46
		C303.152,112.328,301.862,112.858,300.932,113.788z"/>
	<path d="M319.472,146.328c1.311,0,2.6-0.54,3.53-1.47c0.93-0.93,1.47-2.22,1.47-3.53c0-1.32-0.54-2.61-1.47-3.54
		c-0.931-0.93-2.22-1.46-3.53-1.46c-1.32,0-2.61,0.53-3.54,1.46c-0.93,0.93-1.46,2.22-1.46,3.54c0,1.31,0.53,2.6,1.46,3.53
		C316.862,145.788,318.152,146.328,319.472,146.328z"/>
	<path d="M302.472,134.328c-1.32,0-2.61,0.53-3.54,1.46c-0.93,0.93-1.46,2.22-1.46,3.54c0,1.31,0.53,2.6,1.46,3.53
		c0.93,0.93,2.22,1.47,3.54,1.47c1.311,0,2.6-0.54,3.53-1.47c0.93-0.93,1.47-2.21,1.47-3.53c0-1.32-0.54-2.61-1.47-3.54
		C305.072,134.858,303.783,134.328,302.472,134.328z"/>
	<path d="M138.932,126.788c-0.93,0.93-1.46,2.22-1.46,3.54c0,1.31,0.53,2.6,1.46,3.53c0.93,0.93,2.22,1.47,3.54,1.47
		c1.311,0,2.6-0.54,3.53-1.47c0.93-0.93,1.47-2.22,1.47-3.53c0-1.32-0.54-2.61-1.47-3.54c-0.931-0.93-2.22-1.46-3.53-1.46
		C141.152,125.328,139.862,125.858,138.932,126.788z"/>
	<path d="M139.472,111.328c1.311,0,2.6-0.54,3.53-1.47c0.93-0.93,1.47-2.22,1.47-3.53c0-1.32-0.54-2.61-1.47-3.54
		c-0.931-0.93-2.22-1.46-3.53-1.46c-1.32,0-2.61,0.53-3.54,1.46c-0.93,0.93-1.46,2.22-1.46,3.54c0,1.31,0.53,2.6,1.46,3.53
		C136.862,110.788,138.152,111.328,139.472,111.328z"/>
	<path d="M115.932,115.788c-0.93,0.93-1.46,2.22-1.46,3.54c0,1.31,0.53,2.6,1.46,3.53c0.93,0.93,2.22,1.47,3.54,1.47
		c1.311,0,2.6-0.54,3.53-1.47c0.93-0.93,1.47-2.22,1.47-3.53c0-1.32-0.54-2.61-1.47-3.54c-0.931-0.93-2.22-1.46-3.53-1.46
		C118.152,114.328,116.862,114.858,115.932,115.788z"/>
	<path d="M234.472,85.328c-1.32,0-2.61,0.53-3.54,1.46c-0.93,0.93-1.46,2.22-1.46,3.54c0,1.31,0.53,2.6,1.46,3.53
		c0.93,0.93,2.22,1.47,3.54,1.47c1.311,0,2.6-0.54,3.53-1.47c0.93-0.93,1.47-2.22,1.47-3.53c0-1.32-0.54-2.61-1.47-3.54
		C237.072,85.858,235.783,85.328,234.472,85.328z"/>
	<path d="M32.472,138.328c-1.32,0-2.61,0.53-3.54,1.46c-0.93,0.93-1.46,2.22-1.46,3.54c0,1.31,0.53,2.6,1.46,3.53
		c0.93,0.93,2.22,1.47,3.54,1.47c1.311,0,2.6-0.54,3.53-1.47c0.93-0.93,1.47-2.22,1.47-3.53c0-1.32-0.54-2.61-1.47-3.54
		C35.072,138.858,33.793,138.328,32.472,138.328z"/>
	<path d="M50.003,153.788c-0.931-0.93-2.22-1.46-3.53-1.46c-1.32,0-2.61,0.53-3.54,1.46c-0.93,0.93-1.46,2.22-1.46,3.54
		c0,1.31,0.53,2.6,1.46,3.53c0.93,0.93,2.22,1.47,3.54,1.47c1.311,0,2.6-0.54,3.53-1.47c0.93-0.93,1.47-2.22,1.47-3.53
		C51.472,156.008,50.932,154.718,50.003,153.788z"/>
	<path d="M26.472,155.328c-1.32,0-2.61,0.53-3.54,1.46c-0.93,0.93-1.46,2.22-1.46,3.54c0,1.31,0.53,2.6,1.46,3.53
		c0.93,0.93,2.22,1.47,3.54,1.47c1.311,0,2.6-0.54,3.53-1.47c0.93-0.93,1.47-2.22,1.47-3.53c0-1.32-0.54-2.61-1.47-3.54
		C29.072,155.858,27.783,155.328,26.472,155.328z"/>
	<path d="M53.472,223.328c1.311,0,2.6-0.54,3.53-1.47c0.93-0.93,1.47-2.22,1.47-3.53c0-1.32-0.54-2.61-1.47-3.54
		c-0.931-0.93-2.22-1.46-3.53-1.46c-1.32,0-2.61,0.53-3.54,1.46c-0.93,0.93-1.46,2.22-1.46,3.54c0,1.31,0.53,2.6,1.46,3.53
		C50.862,222.788,52.152,223.328,53.472,223.328z"/>
	<path d="M100.932,256.788c-0.93,0.93-1.46,2.22-1.46,3.54c0,1.31,0.53,2.6,1.46,3.53c0.93,0.93,2.22,1.47,3.54,1.47
		c1.311,0,2.6-0.54,3.53-1.47c0.93-0.93,1.47-2.22,1.47-3.53c0-1.32-0.54-2.61-1.47-3.54c-0.931-0.93-2.22-1.46-3.53-1.46
		C103.152,255.328,101.862,255.858,100.932,256.788z"/>
	<path d="M146.793,399.598c-1.311,0-2.601,0.53-3.53,1.46c-0.93,0.94-1.47,2.23-1.47,3.54c0,1.32,0.54,2.6,1.47,3.54
		c0.93,0.93,2.22,1.46,3.53,1.46c1.319,0,2.609-0.53,3.54-1.46c0.93-0.94,1.46-2.22,1.46-3.54s-0.53-2.6-1.46-3.54
		C149.402,400.128,148.112,399.598,146.793,399.598z"/>
</g>
<g>
</g>
<g>
</g>
<g>
</g>
<g>
</g>
<g>
</g>
<g>
</g>
<g>
</g>
<g>
</g>
<g>
</g>
<g>
</g>
<g>
</g>
<g>
</g>
<g>
</g>
<g>
</g>
<g>
</g>
</svg>
