<?xml version="1.0" encoding="utf-8"?>
<!-- Generator: Adobe Illustrator 12.0.0, SVG Export Plug-In . SVG Version: 6.00 Build 51448)  -->
<!DOCTYPE svg PUBLIC "-//W3C//DTD SVG 1.1//EN" "http://www.w3.org/Graphics/SVG/1.1/DTD/svg11.dtd" [
	<!ENTITY ns_flows "http://ns.adobe.com/Flows/1.0/">
	<!ENTITY ns_extend "http://ns.adobe.com/Extensibility/1.0/">
	<!ENTITY ns_ai "http://ns.adobe.com/AdobeIllustrator/10.0/">
	<!ENTITY ns_graphs "http://ns.adobe.com/Graphs/1.0/">
	<!ENTITY ns_svg "http://www.w3.org/2000/svg">
	<!ENTITY ns_xlink "http://www.w3.org/1999/xlink">
]>
<svg  version="1.1" id="wb" xmlns:x="&ns_extend;" xmlns:i="&ns_ai;" xmlns:graph="&ns_graphs;"
	 xmlns="&ns_svg;" xmlns:xlink="&ns_xlink;" xmlns:a="http://ns.adobe.com/AdobeSVGViewerExtensions/3.0/"
	 width="1509.5" height="1975.3" viewBox="0 0 1509.5 1975.3" overflow="visible" enable-background="new 0 0 1509.5 1975.3"
	 xml:space="preserve">
<metadata><?xpacket begin="﻿" id="W5M0MpCehiHzreSzNTczkc9d"?>
<x:xmpmeta xmlns:x="adobe:ns:meta/" x:xmptk="3.1.1-111">
   <rdf:RDF xmlns:rdf="http://www.w3.org/1999/02/22-rdf-syntax-ns#">
      <rdf:Description rdf:about=""
            xmlns:dc="http://purl.org/dc/elements/1.1/">
         <dc:format>image/svg+xml</dc:format>
         <dc:title>
            <rdf:Alt>
               <rdf:li xml:lang="x-default">Wikiproject India Map</rdf:li>
            </rdf:Alt>
         </dc:title>
         <dc:rights>
            <rdf:Alt>
               <rdf:li xml:lang="x-default">GFDL / Creative Commons - Share Alike</rdf:li>
            </rdf:Alt>
         </dc:rights>
         <dc:subject>
            <rdf:Bag>
               <rdf:li>wikiproject india</rdf:li>
               <rdf:li>india map</rdf:li>
               <rdf:li>indian map</rdf:li>
               <rdf:li>wikipedia</rdf:li>
               <rdf:li>india</rdf:li>
               <rdf:li>SVG</rdf:li>
            </rdf:Bag>
         </dc:subject>
         <dc:creator>
            <rdf:Seq>
               <rdf:li>http://en.wikipedia.org/wiki/User:Planemad</rdf:li>
            </rdf:Seq>
         </dc:creator>
         <dc:description>
            <rdf:Alt>
               <rdf:li xml:lang="x-default">Part of Wikiproject India Maps for standardised SVG maps of India.&#xA;&#xA;http://en.wikipedia.org/wiki/WP:INMAP&#xA;http://commons.wikimedia.org/wiki/Category:WikiProject_India_Maps</rdf:li>
            </rdf:Alt>
         </dc:description>
      </rdf:Description>
      <rdf:Description rdf:about=""
            xmlns:xap="http://ns.adobe.com/xap/1.0/"
            xmlns:xapGImg="http://ns.adobe.com/xap/1.0/g/img/">
         <xap:CreatorTool>Adobe Illustrator CS2</xap:CreatorTool>
         <xap:CreateDate>2007-05-08T15:16:14+05:30</xap:CreateDate>
         <xap:ModifyDate>2007-05-08T15:16:14+05:30</xap:ModifyDate>
         <xap:MetadataDate>2007-05-08T15:16:14+05:30</xap:MetadataDate>
         <xap:Thumbnails>
            <rdf:Alt>
               <rdf:li rdf:parseType="Resource">
                  <xapGImg:width>196</xapGImg:width>
                  <xapGImg:height>256</xapGImg:height>
                  <xapGImg:format>JPEG</xapGImg:format>
                  <xapGImg:image>/9j/4AAQSkZJRgABAgEASABIAAD/7QAsUGhvdG9zaG9wIDMuMAA4QklNA+0AAAAAABAASAAAAAEA&#xA;AQBIAAAAAQAB/+4ADkFkb2JlAGTAAAAAAf/bAIQABgQEBAUEBgUFBgkGBQYJCwgGBggLDAoKCwoK&#xA;DBAMDAwMDAwQDA4PEA8ODBMTFBQTExwbGxscHx8fHx8fHx8fHwEHBwcNDA0YEBAYGhURFRofHx8f&#xA;Hx8fHx8fHx8fHx8fHx8fHx8fHx8fHx8fHx8fHx8fHx8fHx8fHx8fHx8fHx8f/8AAEQgBAADEAwER&#xA;AAIRAQMRAf/EAaIAAAAHAQEBAQEAAAAAAAAAAAQFAwIGAQAHCAkKCwEAAgIDAQEBAQEAAAAAAAAA&#xA;AQACAwQFBgcICQoLEAACAQMDAgQCBgcDBAIGAnMBAgMRBAAFIRIxQVEGE2EicYEUMpGhBxWxQiPB&#xA;UtHhMxZi8CRygvElQzRTkqKyY3PCNUQnk6OzNhdUZHTD0uIIJoMJChgZhJRFRqS0VtNVKBry4/PE&#xA;1OT0ZXWFlaW1xdXl9WZ2hpamtsbW5vY3R1dnd4eXp7fH1+f3OEhYaHiImKi4yNjo+Ck5SVlpeYmZ&#xA;qbnJ2en5KjpKWmp6ipqqusra6voRAAICAQIDBQUEBQYECAMDbQEAAhEDBCESMUEFURNhIgZxgZEy&#xA;obHwFMHR4SNCFVJicvEzJDRDghaSUyWiY7LCB3PSNeJEgxdUkwgJChgZJjZFGidkdFU38qOzwygp&#xA;0+PzhJSktMTU5PRldYWVpbXF1eX1RlZmdoaWprbG1ub2R1dnd4eXp7fH1+f3OEhYaHiImKi4yNjo&#xA;+DlJWWl5iZmpucnZ6fkqOkpaanqKmqq6ytrq+v/aAAwDAQACEQMRAD8A9U4q7FXYq7FXYq7FXYq7&#xA;FXYq7FXYq7FXYq7FXYq7FXYq7FXYq7FXYqtlkEaFzTbxNBiqjDfQyLVmCN/KT/tYqiAQRUbjxxV2&#xA;KuxV2KuxV2KuxV2KuxV2KuxV2KuxV2KuxV2KuxV2KuxV2KqU11DCaOTU+xxVfHKkkYdT8JxVbJcQ&#xA;xmjuFNK0xVLr+6WYhUJ4LufAnFUJhVH6ZM5cxE1WlVHhvgVMcVdirsVdirsVdirsVdirsVdirsVd&#xA;irsVdirsVdirsVdiqm1zAsnps4DeBxVLb26WdgFHwr0PjiqG5NTjU08O2FV8kzyKoah47A03piqn&#xA;irsVTDSo/ieTw+EH8TgVMMVdirsVdirsVdirsVdirsVdirsVdirsVdirj08cVSq4v52Yhf3YFQR3&#xA;xVZb3kkLE/brQGte2Kqq6nMCagMCdh4YqhJHLuznqxJ+/Cq3FXYq7FXYq7FU309Atsp7sST+rAqJ&#xA;xV2KuxV2KuxV2KuxV2KuxV2KtMwVSzbACpOKqEd9BI/EVHgTsCcVVIp4pa8GrTYjFVTFVK6lEUDt&#xA;WhpRfmcVSXCrWKuxV2KuxV2KuxV2KuxVPLan1eOn8o/VgVUxV2KuxV2KuxV2KuxV2KuxVp3VFLMQ&#xA;AO5xVB3t5EYSkb1ZvDwOKpZhVcjsjBl2YdDiqYx6pHx/eKQw8N64FQVxcPK7En4SagfLYYqo4Vdi&#xA;rsVdirsVdirsVdiq+JDJIqDqxpiqegBQANgNhgV2KuxV2KuxV2KuxV2KuxV2KoTUw5gFOnL4sVSr&#xA;CrsVdirsVdirsVdirsVdirsVdirsVdiqN0yLlKZCNkG3zOBUzxV2KuxV2KuxV2KuxV2KuxV2KqF7&#xA;MscDAndwVUfPFUmwq7FXYq7FXYq7FXYq7FXYq7FXYq7FV8UbSSKi9WOKp1DEkUYReg6nxPjgVfir&#xA;sVdirsVdirsVdirsVdirsVS59OuXarSBj4knFUNPaywUL0IPQjpiqjhV2KuxV2KuxV2KuxV2KuxV&#xA;2KuxVNNOtuCeq32n6ewwKjMVdirsVdirsVdirsVdirsVdirsVU2urda1kWo6iuKpffXnqn00/uxv&#xA;XxOKoPCrsVdirsVdirsVdirsVdiq5PtDblv9nxxVGx2LGUOKKoIPE7mh33GBUxxV2KuxV2KuxV2K&#xA;uxV2KtM6opZjRR1JxVTju4JHKK1SBX2OKrXvrZf2+XsN8VdJdweiWDipUlRXfFUnwq1irsVdirsV&#xA;dirsVdirsVdirsVbxVMdNdGJAUhgByatQfowKjsVdirsVdiq2VykbOBUqCafLFUum1KR1AjHD+Y7&#xA;Gv4Yq3HqL+oi0CxCgI67eNcVRn121/34PxxVCahdJIirG1QSS30dMVQKsVIKmhHQjCrWKuxV2Kux&#xA;V2KuxV2KuxV2KuxV2KuxV2KuxVM9KA9Jz3LUP0DAqNxV2KuxV2KtMoZSp3BFCPY4qhZdNgapSqHt&#xA;3GKpfPbyQtRxsehHQ4VUsVdirsVdirsVdirsVdirsVdirsVdirsVdirsVdirsVRWnSlLgLX4X2I9&#xA;+2BU2xV2KuxV2KuxV2KpfcW99OwLABR0Wo2xVCz2zQheZHNv2R2HzxVRwq7FXYq7FXYq7FXYq7FX&#xA;Yq7FXYq7FXYq7FXYq7FVSBuM0beDCv34qnmBXYq7FXYq7FXYq7FUFqFxFxMJry2NRTY4qlmFXYq7&#xA;FXYq7FXYq7FXYq7FXYq7FXYq7FXYq7FXYqvjjdnUKpNT2GKp7gV2KuxV2KuxV2KuxVDT2EMrFgSr&#xA;nqR0r8sVS2e3eF+Lbjs3Y4VUsVdirsVdirsVdirsVdirsVdirsVdirsVdirsVR9hdqvGEqFG/wAd&#xA;aYFTHFXYq7FXYq7FXYq7FXYqlupTo5VENQteXz6YqgcKuxV2KuxV2KuxV2KuxV2KuxV2KuxV2Kux&#xA;V2Kro/7xfmP14qn2BXYq7FXYq7FXYq7FXYqkt03K4kP+UR922KqOFXYq7FXYq7FXYq7FXYq7FXYq&#xA;7FXYq7FXYq7FW1NGB8Diqf4FdirsVdirsVdirsVdiqTXiFbh/h4gmo98Vat7aWckJ0HVj0GKr7u0&#xA;MHEg8lbvSm+KobCrsVdirsVdirsVdirsVdirsVdiqstpcsoYRmh6dMCrWt51+1Gw96HCqzFU/HQY&#xA;FdirsVdirsVdirsVdiq14o5AA6hqdK4q2kaIvFFCjwGKoPUp4+Ho9X2PTpiqWYVdirsVdirsVdir&#xA;sVdirsVdiqN02APIZD0ToPc4FTPFXYq6grWm+KuxV2KuxV2KuxV2KuxV2KuxV2KoHVVTgjft1oPc&#xA;YqluFXYq7FXYq7FXYq7FXYq7FXYqmmnQSIpdjQP0X+OBUZirsVdirsVdirsVdirsVdirsVdirsVd&#xA;iqW6rT1U3349PpxVA4VdirsVdirsVdirsVdirsVRNlbGWUEj92u5r0PtgVN8VdirsVdirsVdirsV&#xA;dirsVdirsVdirsVdiqV3cFzJcseBIJopHSnzxVCujI5VuqmhwqtxV2KuxV2KuxV2KuxVdGjSOEX7&#xA;TGgxVPIo1jjVF6DAq7FXYq7FXYq7FXYq7FXYq7FXYq7FXYq7FXYq7FUmu5VlnZlAAG1R3p3xVQwq&#xA;7FXYq7FXYq7FXYqibAoLpSxp1A+ZGBU3xV2KuxV2KuxV2KuxV2KuxV2KuxV2KuxV2KuxVD30hjtm&#xA;INC1FB+eKpPhV2KuxV2KuxV2KuxVvFVZLO5ehCEA9ztgVHwteoAskfPwYMB9+Kqk80yikUfNqbns&#xA;P64qvhfnGrV3p8Xbfviq/FXYq7FXYq7FXYq7FXYq7FXYq7FXYqlmo3KyMI0NVXckdziqCwq7FXYq&#xA;7FXYqqwW8kzUQbDqx6DAqMGlCm8lT4Af24qi4baKIDioqP2iBX78VVCK+P6sVdQH6OmKuxVrgvLk&#xA;Nm707/PFW8VdirsVdirsVdirsVdirsVdirsVdiqUXtt6Mnw/Yb7Pt7YqhsKuxV2KuxVXtLf15eJ2&#xA;UbscCpwkaRqFQUUdsVbxV2KuxV2KuxV2KuxV2KuxV2KuxV2KuxV2KuxV2KuxV2KpRfTNJOQRQJ8I&#xA;GKobCrsVdirsVR+lhquQPhNAT9+BUxxV2KuxV2KuxV2KuxV2KuxV2KuxV2KuxV2KuxV2KuxV2Kux&#xA;VLtTjiBDqRzJowr+OKoDCrsVdirsVTXTK/Vv9kafhgVF4q7FXYq7FXYq7FXYq7FXYq7FXYq7FXYq&#xA;7FXYq7FXYq7FXMwUEnYDFUjuJfVlaSlK9B7YVU8VdirsVXxRPI1EUnxp2xVO4okiQIgoBgVdirsV&#xA;dirsVdirsVdirsVdirsVdirsVdirsVdirsVdirsVUrm3WePiSQRuCPHFUomgkibi4p4HscKqeKtg&#xA;E9BX5YqjLbT2kHKWqDsvc4FTGOJI14oKDFV2KuxV2KuxV2KuxV2KuxV2KuxV2KuxV2KuxV2KuxV2&#xA;KuxV2KuxVp0R14uAw8DiqGfTbdt1qvyO344qrxRLFGEXoB18cVX4q7FXYq7FXYq7FXYq7FXYq7FX&#xA;Yq7FXYq7FXYq7FX/2Q==</xapGImg:image>
               </rdf:li>
            </rdf:Alt>
         </xap:Thumbnails>
      </rdf:Description>
      <rdf:Description rdf:about=""
            xmlns:xapMM="http://ns.adobe.com/xap/1.0/mm/"
            xmlns:stRef="http://ns.adobe.com/xap/1.0/sType/ResourceRef#">
         <xapMM:DocumentID>uuid:1F5D0E3945FDDB11B8CBADAB21D750F8</xapMM:DocumentID>
         <xapMM:InstanceID>uuid:205D0E3945FDDB11B8CBADAB21D750F8</xapMM:InstanceID>
         <xapMM:DerivedFrom rdf:parseType="Resource">
            <stRef:instanceID>uuid:1E5D0E3945FDDB11B8CBADAB21D750F8</stRef:instanceID>
            <stRef:documentID>uuid:1D5D0E3945FDDB11B8CBADAB21D750F8</stRef:documentID>
         </xapMM:DerivedFrom>
      </rdf:Description>
      <rdf:Description rdf:about=""
            xmlns:xapRights="http://ns.adobe.com/xap/1.0/rights/">
         <xapRights:Marked>False</xapRights:Marked>
         <xapRights:WebStatement>http://commons.wikimedia.org/wiki/Image:India_map_blank.svg#License</xapRights:WebStatement>
         <xapRights:UsageTerms>
            <rdf:Alt>
               <rdf:li xml:lang="x-default">Permission is granted to copy, distribute and/or modify this document under the terms of the GNU Free Documentation License, Version 1.2 or any later version published by the Free Software Foundation; with no Invariant Sections, no Front-Cover Texts, and no Back-Cover Texts. A copy of the license is included in the section entitled "GNU Free Documentation License".&#xA;&#xA;This file is licensed under the Creative Commons Attribution ShareAlike license versions 2.5, 2.0, and 1.0</rdf:li>
            </rdf:Alt>
         </xapRights:UsageTerms>
      </rdf:Description>
      <rdf:Description rdf:about=""
            xmlns:photoshop="http://ns.adobe.com/photoshop/1.0/">
         <photoshop:CaptionWriter>http://en.wikipedia.org/wiki/User:Planemad</photoshop:CaptionWriter>
         <photoshop:AuthorsPosition>User:Planemad</photoshop:AuthorsPosition>
         <photoshop:Headline>SVG Maps of India</photoshop:Headline>
         <photoshop:Country>India</photoshop:Country>
         <photoshop:Credit>Wikipedia</photoshop:Credit>
      </rdf:Description>
      <rdf:Description rdf:about=""
            xmlns:Iptc4xmpCore="http://iptc.org/std/Iptc4xmpCore/1.0/xmlns/">
         <Iptc4xmpCore:CountryCode>IN</Iptc4xmpCore:CountryCode>
         <Iptc4xmpCore:CreatorContactInfo rdf:parseType="Resource">
            <Iptc4xmpCore:CiAdrCtry>India</Iptc4xmpCore:CiAdrCtry>
            <Iptc4xmpCore:CiAdrCity>Chennai</Iptc4xmpCore:CiAdrCity>
            <Iptc4xmpCore:CiUrlWork>http://en.wikipedia.org/wiki/User:Planemad</Iptc4xmpCore:CiUrlWork>
         </Iptc4xmpCore:CreatorContactInfo>
      </rdf:Description>
   </rdf:RDF>
</x:xmpmeta>
                                                                                                    
                                                                                                    
                                                                                                    
                                                                                                    
                                                                                                    
                                                                                                    
                                                                                                    
                                                                                                    
                                                                                                    
                                                                                                    
                                                                                                    
                                                                                                    
                                                                                                    
                                                                                                    
                                                                                                    
                                                                                                    
                                                                                                    
                                                                                                    
                                                                                                    
                                                                                                    
                           
<?xpacket end="w"?>
	</metadata>
<symbol  id="New_Symbol_10" viewBox="-9.75 -9.75 19.5 19.5">
	<g>
		<g>
			<radialGradient id="XMLID_2_" cx="-4.5" cy="4.25" r="22.8378" gradientUnits="userSpaceOnUse">
				<stop  offset="0" style="stop-color:#878787"/>
				<stop  offset="0.0827" style="stop-color:#676767"/>
				<stop  offset="0.1836" style="stop-color:#474747"/>
				<stop  offset="0.2937" style="stop-color:#2D2D2D"/>
				<stop  offset="0.4146" style="stop-color:#191919"/>
				<stop  offset="0.5516" style="stop-color:#0B0B0B"/>
				<stop  offset="0.7185" style="stop-color:#030303"/>
				<stop  offset="1" style="stop-color:#000000"/>
				<a:midPointStop  offset="0" style="stop-color:#878787"/>
				<a:midPointStop  offset="0.1977" style="stop-color:#878787"/>
				<a:midPointStop  offset="1" style="stop-color:#000000"/>
			</radialGradient>
			<path fill="url(#XMLID_2_)" d="M-9.75,0c0-5.38,4.37-9.75,9.75-9.75c5.38,0,9.75,4.37,9.75,9.75S5.38,9.75,0,9.75
				C-5.38,9.75-9.75,5.38-9.75,0z"/>
		</g>
	</g>
</symbol>
<symbol  id="New_Symbol_11" viewBox="-1.67 -1.67 3.33 3.33">
	<path fill="#221E1F" d="M1.67,0c0-0.92-0.74-1.67-1.67-1.67c-0.92,0-1.67,0.75-1.67,1.67c0,0.92,0.75,1.67,1.67,1.67
		C0.92,1.67,1.67,0.92,1.67,0z"/>
</symbol>
<rect id="base" fill="#FFFFFF" width="1509.5" height="1975.3"/>
<g>
	<polygon fill="#E7E7E8" points="1033.19,1549.36 1032.72,1548.03 1029.84,1547.71 1027.59,1545.76 1025.97,1546.71 
		1025.19,1548.51 1026.28,1548.67 1027.07,1548.03 1028.85,1548.36 1031.41,1549.68 1032.88,1549.68 1033.5,1550.79 
		1035.28,1549.21 1034.81,1548.56 	"/>
	<polygon fill="#E7E7E8" points="942.49,1562.04 942.96,1563.31 943.75,1563 944.07,1560.55 945.69,1559.75 945.84,1558.12 
		942.65,1560.72 	"/>
	<polygon fill="#E7E7E8" points="859.85,1579.87 857.29,1582.62 859.85,1583.1 862.11,1582.14 862.41,1581.51 861.79,1580.19 	"/>
	<polygon fill="#E7E7E8" points="982.98,1553.87 979.94,1554.03 978.32,1553.55 974.19,1554.51 972.73,1553.71 971.47,1553.87 
		969.22,1555.67 968.91,1556.47 970.79,1556.31 976.7,1554.67 979.58,1554.82 981.2,1555.46 982.98,1555.14 984.75,1554.19 
		985.07,1553.55 984.75,1552.76 	"/>
	<polygon fill="#E7E7E8" points="1071.58,1535.78 1069.8,1535.46 1068.18,1534.13 1067.4,1532.49 1066.45,1531.85 1066.3,1532.65 
		1067.71,1535.1 1068.49,1536.05 1071.21,1536.68 1072.89,1536.2 1073.52,1535.1 1073.04,1534.13 	"/>
	<polygon fill="#E7E7E8" points="1077.49,1530.74 1075.4,1531.85 1075.08,1533.13 1077.38,1531.85 1081.52,1531.85 1081.68,1531.22 
		1080.21,1530.58 	"/>
	<path fill="#E7E7E8" d="M1075.05,1520.05c0.01,0.31,0.06,0.62,0.04,0.98c-0.04,0.65-0.3,1.2-0.53,1.81l0.47,0.95l3.66-0.95
		l0.94,2.6l-0.16,2.44l0.63,0.96l8.94-1.12l10.25,0.64l8.16,3.55l3.98,1.64l1.25,0.95l6.07,2.92l6.85,5.51l5.28,3.24l4.14,3.56
		l3.66,1.96l4.14,1.32l1.41,1.44l3.82,3.71l3.5,1.96l2.25,2.77l1.25-0.17l-0.32-1.96l-9.41-9.39l-5.29-3.87l-2.4-0.8l-3.97-3.4
		l-3.2-2.6l-8.32-8.74l-3.04-2.13l-5.28-6.31l-1.1-1.65v-1.65l5.75-9.23l0.15-1.11l0.16-0.95l-0.78-1.65l-3.03-2.6l-2.72-0.64
		l-3.03,0.32l-5.76,1.97l-2.41,2.28l-5.6,6.79l-10.25,0.64l-2.72,0.63c-1.4,0.34-2.79,0.67-4.18,1.04
		c-1.05,0.28-2.42,0.36-3.04,1.38C1075.08,1519.44,1075.04,1519.74,1075.05,1520.05z"/>
	<path fill="#E7E7E8" d="M1455.66,90.63l-1.26-4.88l-1.26-6.15l0.32-2.91L1447.7,77v1.96l-1.11,1.28l-1.46-0.17l-0.94-1.64v-1.97
		l-0.63-1.96l-1.26-1.12l-1.41-0.63l-1.63-0.64l-1.62-0.31l-1.78-0.32l-1.62-0.48l-1.78-0.48l-1.47-0.64l-0.63-1.96v-1.96l0.63-1.65
		l0.47-1.49l-0.63-1.48l-1.63-0.63l-1.62-0.32l-1.94-0.16l-1.46-0.49l-1.42-0.95l-1.1-1.33l-1.1-1.27l-1.42-0.63l-1.78-0.32h-1.93
		l-1.94,0.64l-2.09,0.63l-1.26-0.63l-1.25-1.27l-1.63-0.48l-1.63-0.32l-2.25,0.32l-1.93,0.63l-2.26,0.48l-1.78-0.31l-1.62-0.49
		l-1.47-0.79l-1.42-0.48l-1.78-0.32l-1.63-0.48l-1.62-0.64l-1.62-0.31l-1.78-0.64l-1.63-0.48l-1.26-0.8l-1.26-1.11l-0.94-1.49
		l-1.09-1.33l-0.79-1.96l-0.63-1.97l-0.31-1.96l-0.16-2.12l-0.78-1.96l-1.25-0.8l-1.47-0.95l-3.04-1.27h-7.54h-1.36l-2.41-0.16
		l-3.2-0.17l-4.5,0.17l-2.88-0.17l-2.25,2.45l2.57,1.48l2.88,0.64l1.62,0.63l1.63,2.28l2.41,0.32l4.14,1.96h1.46l-0.47,2.6
		l-0.78,3.08l-3.04,1.97l-5.76,3.08l-2.25-1.33l-4.13-0.32l-1.94,1.28l-0.63,1.96l0.63,2.6l-6.23,4.72l-1.94,3.4l0.16,2.76
		l-1.94,4.4l3.03,1.64l-1.41,1.65l-7.07,0.32l-3.04,0.63l-0.63,1.28l0.16,3.72l3.35,4.4l0.95,3.55l-1.11,1.33l-0.78,2.6l-2.1,2.28
		l-3.51,1.96l-3.67,0.95l-2.1,2.28l-1.25,2.6l-2.26,1.28l-3.51,1.49l-4.13,1.43l-3.98,1.8l-4.66,0.95l-3.98,0.32l-3.36-0.48
		l-4.97,0.48l-3.2,1.8l-1.94,3.55l-3.04,0.63l-3.19-2.28l-3.82-3.55l-4.14-2.28l-2.41,2.6l-0.63,3.4l-0.78,3.23l-1.94,3.08
		l-3.04,0.95l-1.93,0.95l0.15,3.4l4.35,2.43l4.51,1.97l5.29,2.6l5.6,2.28l0.63,4.88l-5.14,0.32l-1.62,2.43l-2.73,1.8l-2.09,0.95
		l-0.95,2.45l-1.26,1.8l-2.41-1.8l-2.1-5.68l-3.66-2.12l-1.79,2.45l-2.73,1.96l-2.56-0.63l-0.63-3.4l0.32-4.4l-3.51-1.65l-1.1,1.97
		l-1.78,1.8l-2.41-3.08l-2.72-2.6l4.35-2.6l1.78-2.91l-2.1-2.29l-4.51-2.91l-2.72,1.65l-3.83,1.33l-2.56-2.92l-2.88,0.63l-1.95,2.77
		l-3.51,3.08l-3.66-1.27l-3.98-0.32l-2.1,3.23l-2.72,1.65l-4.14-0.32l-5.91-6.94l-4.14-3.88l-3.51-8.6l-3.19-4.88l-4.51-2.59
		l-4.35-2.29l-9.95,4.57l-5.92-0.32l-5.13-0.32l-5.45-0.95l-4.98,2.6l-5.76,2.92l-5.13,1.26l0.79,3.55l4.35,0.17l5.29,3.08l3.2,0.63
		l3.98-0.63l-0.32,3.55l-2.4,1.11l1.25,1.8l-0.47,1.65l-3.82,1.65l-2.41,3.23l0.16,3.72l1.94,2.91l6.55,2.45l3.35-1.33l2.72-0.95
		l0.15,3.23l-2.25,1.65l-3.51,1.27l-1.94,0.63l-0.47,2.76l1.26,2.45l-2.09,1.27l-5.29,0.16l-4.98-0.8l-3.82,1.65l-2.88,4.03
		l-3.83,5.36l-3.04,0.95l-3.35-0.63l-1.62,2.28l-1.11,3.55l-0.31,2.6l-2.57,2.6l-3.35,1.65l-2.42,4.19l-3.03,2.44l-2.41,0.48
		l-3.2-3.88c0,0-1.93-2.9-1.94-2.92c-0.15-0.22-1.72-0.98-2.04-1.15c-0.81-0.43-1.74-0.62-2.41-1.29c-0.01-0.01-1.26-1.26-1.26-1.26
		l-2.72-1.65l-2.25-0.32l-2.1,0.64l-2.72,1.33l-2.1,1.43l-2.1-1.43l-3.19-1.97l-1.78-0.63l-0.79,2.28l-0.94,1.33l-1.79,2.91
		l-1.94,5.37l-0.62,2.76l-2.41,3.08l-3.35,3.08l-2.41,2.28l-1.1,4.19l0.31,3.24v3.23l-0.15,3.55l-0.79,3.08l-2.57,1.8l-3.35,1.97
		l-4.82,0.63l-3.04,0.63l-2.88-1.33l-5.45-2.28l-3.04,1.65l-3.2,0.63l-3.51-0.31l-3.35-0.8l-2.26-1.8l-4.5-3.55l-1.1-3.24
		l-2.88-1.33l-4.82,0.32l-5.45-0.63l-3.51,3.55l-1.62,3.55l-1.62,2.6l-1.47,1.96l-4.66,1.48h-1.26l-6.87,1.44l-3.66-2.77l-3.2-4.19
		l-0.95-1.12l-3.04,0.32l-3.98-0.16l-2.57,0.48l-3.98-1.65l0.32-4.4l0.15-3.88l-1.09-5.04l-0.32-4.56l-2.72-3.24h-3.98l-1.47,0.96
		l-3.04,4.03l-1.93,0.15l-2.89-0.48l-4.13,0.16l-4.51-0.95l-2.88-0.63l-3.67,0.95l-3.04,3.55l-1.62,2.92l-2.25,0.95h-3.35
		l-2.25,2.12l-1.78,0.79l-3.36-0.31l-3.35-1.27l-3.51-1.33l-4.5,0.16l-2.72,3.4l-1.63,3.23l-0.63,5.2l-3.04,3.88l-4.35-0.32
		l-3.04,0.8l-4.82-1.12l-1.1,1.65l-1.46,2.6l-1.62,0.32l-2.72,1.26l-4.67,1.65l-3.51,2.28l-0.94,2.28l1.26,2.29l3.04,2.59l2.25,2.77
		l2.57,4.88l3.83,2.76l-0.79,3.23l-2.73,1.8l-2.41,1.8l-1.78,1.65l-1.1,2.6l-2.88,5.83l-1.94,5.2l-0.78,5.04l-2.26,5.68l-0.78,3.4
		l0.15,2.76l0.32,3.55l-1.63,3.55l-1.94,5.2l-2.56,2.6l-2.1,3.23l-1.41,1.97l-2.42,1.33l-1.93,5.19l-2.73-0.63l-0.31,4.88l2.25,0.63
		l1.1,0.32l-1.94,3.88l-1.46,3.4l-1.1,3.55l-1.62,2.11l-1.62,1.65l-1.26,0.17l-3.04-2.44l-0.47-1.65l0.78-1.64l-0.16-2.77
		l-2.72-1.11l-0.63-2.6l-1.62-2.28l-2.88-2.28l-1.26-0.17l-0.47,2.6l1.26,2.12l1.41,2.44v2.77l-1.93,4.56l-1.26,2.28l0.16,1.97
		l-2.26,2.91l-3.66,2.28l-2.57-0.63l-2.89-0.95l-0.78,1.64l0.95,5.2l-0.47,6.47l-0.16,4.03l-0.31,1.8l-3.51,0.63
		c-1.15-0.3-2.29-0.63-3.44-0.91c-1.51-0.37-2.8-0.27-4.25-0.95c-1.15-0.54-2.25-1.18-3.36-1.8l-2.72,0.48l-3.67,0.95l-3.82,1.65
		l-5.13,0.64l-2.72,0.95l-5.14-2.6l-4.82-3.55l-4.14-3.4l-4.14-0.15l-2.1-0.64l-2.09,0.32l-2.73-2.12l-3.98-4.4l-2.57-2.28
		l-4.97-6.79l-3.83-1.97h-1.78l-1.63-2.91l-2.4-0.8l-1.26,2.76l-1.95,1.33l-1.93,2.92l-1.1,1.33l-1.47,1.27l-4.82-2.92l-0.94-0.95
		l-0.47-2.92l2.09-2.28l1.94,0.48l1.78-0.8l0.63-1.96l1.1-0.16l1.94,0.48l2.41-2.28l0.94-2.77l0.47-1.8l-3.35-5.04l0.31-4.4
		l-5.13,8.91l-3.67-3.08l-7.07-3.88l-4.51-3.86l-3.04-2.92l-1.78-2.6l-4.14-1.96l-4.97-1.65l-3.51-1.33l-1.95-0.64h-1.46l0.16,1.33
		l0.16,1.97l-1.94,1.96l-0.94,1.27l-0.63,1.65l0.16,2.6l0.62,2.12l-1.09,1.33l-1.47,0.63l-1.62,1.48l0.15,1.65l1.94,1.49l1.42,1.8
		l-2.57,0.31l-5.76-2.6l-2.88-2.91l-3.04-3.55l-2.57-5.83l-2.09-2.77l-2.26-0.79l-1.78,2.11l-1.78,4.2l-1.93,4.4l-3.04,0.95
		l-2.73-0.95l-0.47-2.28l0.78-4.2l2.89-4.88l1.93-4.56l-2.57-3.88l-3.66-0.32l-3.04,1.27l-4.82,0.95l-5.76,1.65l-1.78,0.32
		l-4.35,1.27l-3.2-0.32l-3.67,0.95l-6.08,3.55l-2.72,0.64l-1.26,0.31l-3.35,2.29l0.16,4.19l1.94,3.23l1.78,4.88l-2.41,5.84
		l-3.67,4.56l-2.72,3.08l0.79,4.71l-0.16,3.72l-3.82,4.4l-4.66,2.91l-1.41,1.97l1.93,2.6l2.73-0.95l4.14,0.95v3.55l-2.25,3.39
		l-4.82,3.72l-4.82-0.15h-3.67l-3.82,0.79l-3.67,0.17l-2.57,3.08l-2.4,3.87l-2.09,1.65l-3.67,0.64l-1.62-0.32l-2.26-0.8l-2.56-1.8
		l-1.1-1.65l-1.93-0.63l-3.36,0.63l-2.41,0.32l-4.51,1.11L545,363.3l-2.25,1.12l-0.48,0.16l-3.04,2.6l-2.25,4.56l-0.15,3.4
		l-0.16,1.11l-3.51,5.84l-0.63,5.83l-2.57,10.71l-0.79,6.48v3.86l0.95,1.97l2.41,2.6l2.88,1.33l2.41,0.48l3.04,1.11l0.63,4.03
		l-3.82,3.24l-3.04,4.71l2.57,2.6l3.19-0.95l4.5-3.88l2.57-0.95l2.1,0.95l0.79,6.32l-1.26,11.51l-1.78,13.31l-0.32,5.83l-1.26,4.72
		l-3.82,3.71l-4.98,6.48l-3.98,5.51l-5.6,7.11l-4.35,3.88l-3.51,2.92l-4.82,2.59l-4.13,1.65l-4.67,0.8l-5.45,1.12l-4.82,0.95
		l-3.04,2.91v4.88l3.67,5.84l-2.41,5.67l3.04,1.8l5.29,2.92l4.51,1.96l5.44-1.96l5.93-0.63l5.61,2.28l5.13,0.95l6.07-1.8l5.45-0.64
		l6.08-0.15h2.09l5.13,2.28l4.51-0.32l4.98,0.32l2.25,0.17l5.29,1.96l5.45,0.8l4.35,0.63l4.13,2.28l4.5,5.84l1.62,2.59l2.25,4.4
		l1.79,2.92c1.17,0.59,2.4,1.12,3.53,1.78c0.78,0.45,2.5,2.08,2.13,3.21c-0.01,0.04-1.79,5.51-1.79,5.51l-4.5,11.67l-3.04,0.64
		l-4.35,2.91l-5.45,4.88l-4.14,4.2l-2.57,3.88l-2.09,2.6l-1.14,2.35l-0.06-0.02l-1.26,2.76v3.4l-2.41,1.48l-7.22,0.32l-1.78-0.8
		l-4.67,0.16l-4.35,3.08l-2.57,0.32l0.63,3.71l0.48,3.88l-0.12,0.07l-0.46-3.73l-0.63-3.72l-4.87,1.92l-9.75,0.8l-4.97-1.12
		l-2.89-1.33l-4.5,2.92l-6.23-0.64l-5.29-1.28l-7.23-0.63l-0.94,3.23l1.1,5.68l-0.95,4.03l-3.35,2.6l-3.67,0.48l-1.78,3.55l0.79,2.6
		l-0.16,4.4l-2.41,2.6l1.47,2.6l-0.16,3.39l-0.47,4.72l-3.19,8.76l-1.42,6.48l-1.94,2.76l-1.78,4.71l-3.98,3.24l-3.2-0.17
		l-4.35-1.48l-5.13-0.48l-3.83-0.8l-3.51,0.95l-3.51,4.2l-3.2,0.63l-2.73,0.32l-9.58-10.4l-2.88-3.86l-2.25-1.28l-3.35-0.95
		l-1.63-0.48l-3.19,1.11l-2.88,0.32l-2.72-3.4l-1.41-1.11l-4.51,2.59l-1.47,2.6l-2.57,2.92l-5.76,0.95l-4.67,2.6l-4.5-0.64
		l-1.41-1.26h-3.98l-7.39,3.08l-4.98,1.11l-6.07,0.32h-4.51l0.47,3.23l2.88,3.87l0.78,4.72l0.63,4.03l-2.72,4.88l-3.67-1.8
		l-4.35-3.72l-3.82-3.23l-4.51-2.6l-2.4-3.55l-1.26-4.56l-1.78-3.55v-1.97l-3.67,0.32l-4.51,0.95l-0.63-5.2l-2.73-3.55l-4.35-0.63
		l-4.35,1.96l-2.73,5.84l-1.62,2.59l-8.17,0.32l-2.72-2.13l-3.98,0.32l-6.86,3.08l-4.98,3.23l-2.41,3.4l-1.94,5.36l-2.56,5.83
		l-3.98,7.48l-3.67,7.32l-2.1,5.99l-1.44,5.87l-0.03-0.03l-0.01,0.16l-0.15,0.63l0.13,0.14l-0.13,3.64l0.31,5.51l0.17,3.55
		l-0.64,4.57l-1.41-1.65l-5.45-1.96l-4.98-1.28l-4.35-0.32l-5.44-0.63l-6.24,0.31h-2.41l-5.61,0.64l-5.76,0.95l-5.92,0.63
		l-7.69-0.63l-6.08-0.32h-6.55l-5.14-0.32l-5.45,0.48l-8.49,1.81l-6.23-0.64l-4.98-0.8l-3.34-3.08l-0.79-3.86l-0.79-4.2l-1.1-6.63
		l0.16-3.71l-2.25-4.57l-3.04-2.91l-3.98-1.65l-3.99-0.63l-4.14,0.48l-4.97,1.43l-4.14,2.76l-4.82,3.4l-5.44,4.56l-2.57,2.28
		l-1.11,0.32l-2.09-1.8l-2.09-1.8l-3.2,0.63l-2.09-0.95l0.16-3.23l-0.32-3.23l-1.09-5.52l0.78-1.43l3.04-0.8l2.25-2.6l1.1-3.08
		l-0.94-3.08l-1.94-1.8l-1.42-2.44l-0.15-2.6l-1.57,1.86l-0.31,1.48l-0.32,1.8l0.15,2.28l-0.31,1.97l-1.62,1.96l-1.78,2.45
		l-2.88,0.95h-1.93l-3.67,0.8l-3.19-0.32l-3.19,0.17l-2.57,0.16l-2.25,0.48l-2.1,1.48l-1.1,3.4l0.32,2.75l-2.41,4.88l-0.78,2.92
		l-3.2,0.63l-2.26-0.48l-3.04-0.48l-2.09,0.17l-1.1,1.48l-3.04,1.65L75.01,714l-3.36-0.8l-1.46-0.63l-2.88-1.33l-3.35-1.96
		l-2.26-1.65l-3.04-0.48l-1.94,0.48l-2.25,1.65l-1.1,3.08l-0.31,2.43l0.62,3.23v2.12l2.1,1.12l1.63,0.95l0.15,2.12l-1.78,1.48
		l-1.1,0.8l-0.31,2.28v1.43l0.78,2.28L55,737.34l-0.15,4.2v4.56l-0.16,3.4l1.42,3.23l2.56,1.65l2.57-2.29l1.47-1.64l2.09,0.63
		l1.26,1.27l1.78-0.32l1.47-0.95l1.41,1.65l1.94,1.28l2.09,0.63l1.63,1.33l2.89,1.28l1.62-0.95l2.1,0.48l1.26,2.45l1.94,2.59h2.41
		l1.63-1.96l1.62-0.95l2.56,1.33l3.2,3.23l3.67,0.48l3.19-0.31l2.1,0.31l2.88,0.95l4.35,2.77l5.6,4.88l3.67,2.6l5.61,1.26l3.35,2.29
		l4.14,2.59l4.82,1.97h1.94l3.51,2.6l2.56,2.76l5.29,6.47l2.41,2.6l3.19,5.36l-0.62,3.87l-1.94,5.2l-3.99,3.23l-3.66,2.6l-4.14,2.6
		l-3.04,1.65l-2.57,0.32l-2.56,1.33l-3.04,3.55l-2.41,1.96l-1.78,1.8l-2.88,2.45l-1.94,2.28l-1.1,3.88l-0.47,2.91l0.31,2.77
		l1.26,0.96l1.78,0.48l1.63,0.63l1.93-0.63l2.41-0.64l2.88-0.31l1.78-0.8l1.94-1.49l1.63-1.64l2.25-0.64l2.4,0.48l4.51,1.97
		l2.87,0.95l4.82,1.11l3.35-0.63H165l3.83-0.95l1.93,0.32l3.2-0.48l2.88-0.8l3.51,0.31h3.04l2.25,0.32l3.2-0.32l2.25,0.32l2.88-0.16
		l3.67-1.12l2.88-1.96l3.03-1.49l2.42-1.48l2.72-1.28l2.41-2.28l4.51-2.92l2.88-0.31h2.73c1.42,1.25,1.69,2.24,1.86,4.19
		c0.09,1.08,0.35,2.46,0.05,3.5c-0.38,1.32-1.67,2.2-2.17,3.39c-0.01,0.01-1.62,3.88-1.62,3.88l-2.41,3.23l-2.25,2.12l-1.63,3.08
		l-1.46,1.8l-1.26,3.23l-0.63,1.65l2.25,1.8l2.26-0.8l2.72-0.48h1.26l1.78,1.33l2.57,2.77l1.46-0.17l1.94-0.32l1.1,0.32l0.94,2.28
		l1.78,3.72l-1.25,2.6l0.16,1.8l2.25,2.91l0.63,3.88l-0.79,1.96l0.16,2.77l0.32,1.48l2.72,3.23l2.25,0.64l4.5,0.95l3.35,1.96
		l0.94,1.65l-2.09,3.4l-3.35,0.95l-7.07,1.28l-4.35-0.17l-5.6-0.31l-3.51-0.64l-2.88,0.17l-2.1,1.43l-3.66,2.6l-2.72,3.55
		l-0.95,3.08l-2.09,5.04l-1.63,3.72l-2.41,3.23l-1.94,3.08l-1.94,1.96l-1.25,3.24l0.15,2.28l4.35,2.6l7.07,3.39l3.36,0.8l2.72,2.28
		l3.04,1.97l3.35,0.95l4.35,0.95l3.04,0.64l5.29,1.96l2.88,1.65l3.67,0.31l4.97,3.55l3.83,2.29l4.14,0.48l4.51,1.43l3.66,2.28
		l2.1,1.65l2.1,1.28l1.41,2.28v3.4l0.16,4.03l1.78,2.28l2.41,0.63l3.19,1.28l3.04,2.28l4.51,2.13l3.51,3.23l1.09,4.04l-0.62,5.19
		l-1.78,4.88l-1.1,3.55l-1.1,3.88l-1.47,3.55l-1.26,4.2l-1.93,5.19l0.15,3.08l-0.94,5.68l-0.62,3.23l0.15,2.29l-1.63,2.6l-3.35,1.26
		l-2.88-0.63l-2.1-0.95l-3.04-0.8l-3.04-0.48l-3.51,0.32l-2.41,1.64l-0.47,3.4l1.25,4.4l3.35,4.19l3.2,1.49l3.51,1.96l0.31,2.77
		l-1.62,4.56l-0.79,4.88l-1.78,3.55l-1.63,4.88l-0.15,3.88l-0.79,4.71l-0.32,4.03l-0.94,4.89l-0.94,8.11l-1.26,5.99l-0.47,5.37v3.86
		l1.78,2.28l1.78,2.92l1.41,1.28l1.26,3.55l2.1,4.03l0.79,3.08l0.31,3.4l-0.63,3.39l-0.15,2.6l-2.1,2.6l0.79,5.52l-0.64,1.48
		l-0.62,3.08l-0.79,0.95l0.15,2.28l0.95,1.97l1.62,1.28l2.88,0.95l1.93,0.95l1.63,1.27l5.61,2.6l3.19,2.6l1.94,2.28l1.94,2.6
		l0.94,0.95l1.94,2.6l1.78,1.96l1.78,0.64l1.62,0.31l2.41,0.17l2.57-0.32l2.88-0.64l2.88,0.49l3.83,0.31l3.82,0.95l3.51,0.96
		l2.72,0.63l2.88-1.33l3.04-1.65l2.41-0.31l3.83-1.44l2.09-1.33l3.04-1.48l1.42-0.8l1.93-2.76l2.1-4.56l1.78-4.2l2.88-4.88
		l2.41-2.12l3.35-2.12l4.35-0.95l4.13-1.64l3.67-1.28l4.34-2.28l4.51-3.55l3.35-3.56l2.57-1.96l2.73-1.65h4.5l4.67,1.65l3.35,0.32
		h3.03l2.57,0.95l3.04,3.23l0.79,1.97l0.31,2.28l3.19,5.83l1.26,3.88l1.63,3.55l1.93,2.76l2.41,1.8l-0.31,3.55l0.31,4.19l0.48,1.96
		l1.78,2.28l1.41,0.32l2.25,0.32h1.78l1.78,5.19l-0.63,2.33l-0.32,0.11l-0.62,2.76l-0.63,4.72l-1.62,6.15l0.31,3.71l-0.47,3.08
		l-2.09,2.92l-1.1,2.6l-2.41,1.64l-1.1,0.32l-3.2,0.63c-1.06,0.48-2.13,1.09-3.23,1.46c-1.75,0.6-3.9,0.08-5.53,1.05
		c-1.12,0.67-2.85,2.61-3.52,3.69c-0.54,0.87-0.61,2.11-0.98,3.08l-1.41,3.4l0.94,1.8l2.1,3.08l2.72,3.24l2.57,2.91l2.1,2.92
		l2.25,0.8l1.26,2.43l0.47,4.88l0.79,3.55l1.78,5.83l1.62,2.28l2.57,3.55l1.1,2.92l1.63,2.28l-0.48,1.64l-0.94,3.23l-1.42,3.88
		l-2.72,4.56l-1.41,3.08l-3.2,5.36l-2.25,3.24l-2.57,4.03l-1.25,1.8l-0.31,3.23l-0.47,3.72l0.31,3.71l0.16,3.55l-0.32,2.92
		l-0.94,3.39v3.08l1.93,1.65l2.73,1.32l2.73,1.28l0.15,3.23l-1.78,5.83l-1.78,4.88l-1.78,2.92l-1.26,3.87l-1.46,4.73l-1.79,4.03
		l-2.73,7.79l-0.78,3.24l-2.88,6.15l-2.25,4.2l-2.1,5.36l-1.62,3.71l-2.09,4.72l-0.47,2.44l0.16,2.91l1.93,0.95l3.2,1.81l4.66,2.44
		l6.08,2.92l4.35,1.96l3.04,2.28l3.67,0.64l3.67,0.63l4.5-1.11l4.5-1.27l3.04-1.49l2.41-2.28l3.35-3.23l2.88-0.96l5.14-1.65
		l3.98-1.33l2.1,2.12l1.78,2.76l-0.16,3.55l0.94,4.56l0.47,4.2l0.47,3.88l1.63,2.28l2.09,1.96l2.09,1.97l2.57,1.27
		c0.35,0.09,1.43,0.98,1.76,1.23c0.7,0.55,1.1,1.39,1.74,2c0.56,0.53,0.85,0.93,1.32,1.59c0,0.01,0.94,1.33,0.94,1.33l0.48,2.12
		l-0.48,3.4l-1.25,3.08l-1.42,1.27l-3.04,2.13l-1.93,1.33l-1.47,1.26l-1.78,1.32l-1.42,1.97l-2.1,1.48l-1.61,1.8l-1.47,2.13
		l-0.31,1.12l-0.47,0.79l-0.78,2.77l-0.64,1.96l-0.31,2.13l-0.31,1.11l-0.16,0.96l-1.62,3.55l-0.79,3.86l-0.67,3.05l-0.27-0.07
		l-2.78,3.98l-0.94,2.77l-2.25,2.91l-4.14,4.88l-2.41,2.77l-2.25,4.4l-1.78,5.83l-0.16,2.91l-0.95,4.2l-0.31,2.6l-1.1,5.19
		l-1.1,3.24l-1.1,2.6l-0.79,3.23l-0.47,4.18l-0.94,4.2l-0.63,2.91l-0.47,2.92l-1.1,4.88l-1.94,3.56l-0.47,2.6l-0.79,2.92l-0.31,1.64
		l-0.63,2.92l-0.63,1.65l-1.78,3.55l-2.72,4.4l-2.26,3.55l-1.78,3.08l-1.47,2.28l-1.63,3.08l-2.72,3.71l-1.46,2.12l-0.95,1.43
		l-2.56,1.97l-2.57,1.64l-3.04,1.65l-2.42,0.95l-2.09,0.64l-2.25,0.95l-2.73,1.27l-1.78,1.8l-0.15,3.71l1.62,3.88l4.97,9.39
		l3.04,3.4l2.72,3.4l3.04,2.59l2.72,3.24l3.04,2.28l2.1,3.88l3.67,4.56l1.1,2.6v1.8l1.63,1.11l2.25,2.77l1.78,3.23l2.1,2.45
		l1.1,2.91l0.47,2.13l0.16,2.12l-0.16,2.6l-1.26,2.91l-2.1,3.24l-1.78,2.28l-1.1,1.8l-1.46,2.91l-0.79,1.12l-1.63,2.6l-1.78,2.28
		l-1.62,2.6l-0.78,2.44l-0.63,3.4l-2.88,4.56l-2.09,1.28l-1.95,1.28l-2.4,1.33l-3.51,1.65l-1.26,1.28l-0.16,3.86l1.78,3.55
		l0.63,4.57l1.46,4.41l2.1,4.4l2.25,5.51l2.42,4.57l2.56,3.55l2.09,2.59l3.2,2.13l4.35,3.4l3.19,3.08l1.63,1.65l1.1,2.11l1.11,1.65
		l0.94,1.65l0.94,2.13l0.63,2.11l0.48,1.65l-0.95,3.56c0.44,1.36,0.57,2.4,0.67,3.76c0.11,1.48,1.32,2.84,0.96,4.35
		c0,0.01-0.63,2.6-0.63,2.6l-0.94,2.92l-1.62,2.28l-2.88,0.63l-2.25,0.32l-0.62,2.92l-1.63,0.63l-3.98,0.32l-3.51-0.32l-2.42-0.95
		l-2.09-0.63l-1.62,0.31l-1.63,1.97l0.47,2.6l1.26,0.79l1.63,1.81l-0.16,3.55l0.32,1.96l3.35,1.96l2.57,0.17l-0.16,4.03l-4.35,4.03
		l-3.51,0.64l-1.62,1.8l-1.1,1.96l-2.1,4.88l-3.82,5.36l-1.1,1.49l-2.1,2.28l-1.41,2.12l-1.1,2.43l-1.26,3.23l-1.25,1.97l0.15,2.91
		l0.15,2.29l-0.62,3.23l-0.79,3.87l-1.93,0.79l-2.57,0.16h-3.83l-2.25-0.47l-2.72,0.8l-2.1,3.23l-1.41,2.44l-2.1,1.12l-2.1,1.27
		l-1.94,0.63l-2.73,2.6l18.44,14.43l2.88,1.8l4.97,4.88l7.86,8.44l13.62,8.75l2.25,3.55l4.35,1.28l10.11,4.56l7.54,5.83l1.1,1.43
		v2.45l0.47,1.27l3.83,2.6h1.93l1.26-1.65h0.47l7.86,0.95l4.14,2.28l7.86,1.33l6.08,3.24l3.04,0.95l4.35,1.27l7.55,1.11l14.4,3.72
		l8.48,0.78l5.61,1.12h2.25l1.1-0.32l3.98,1.97l0.62-3.08l1.1-1.12l2.09-0.95l0.31-1.43l-1.93-1.49l-0.32-6.46l0.94-1.65
		c1.43-1.43,3.12-2.68,4.66-4c0.98-0.85,1.71-1.8,2.6-2.72c1.15-1.19,2.77-1.31,4.11-2.2l4.98-0.8l3.98-1.11l5.44-2.45l2.42-0.47
		l2.4,0.15l5.29-0.15l13.77-2.28l8.64-2.92l2.72-0.16l4.97-2.44l2.56-2.44l5.76-2.92l2.41-2.28l0.79-1.96l-0.16-3.55l6.23-6.8
		l6.08-2.91l11.52-2.92l3.19-1.48l3.67-1.65l5.61-3.4l6.55-5.2l7.07-2.91l6.7-3.88l5.29-6.78l0.63-0.32l9.27-5.2l3.83-1.27
		l1.31-0.88l0.31,0.1l3.04-2.12l4.35-0.95l9.58-3.72l3.51-0.63l-0.31-0.48l-2.1-0.32l-0.79-2.43l-0.47-2.29l0.94-5.04l0.95-3.08
		l2.88-5.2l5.61-8.11l8.8-8.43l4.14-4.2l2.09-2.76l-1.62-3.08l-0.63-6.48l0.47-4.71l4.35-17.34l-0.47-1.97l-0.32-1.33v-0.63
		l-1.46-2.45l-1.41-11.83v-2.91l0.78-0.64l0.78-3.23l-0.31-0.95l-0.79-0.32l0.15-2.12l0.16-3.08l0.95-0.96l2.56-5.51l5.45-6.8
		l-0.47-1.96l0.94-3.4l1.1-2.28l6.38-4.72l2.26-0.31l1.62,1.27h1.1l1.41-3.24l1.78-3.88v-5.19l-0.79-0.95h-0.63v4.56l-0.79,2.91
		l-1.26,2.6h-0.94l-1.47-1.96l-3.35-1.43l-1.26,0.15l-1.94,1.28l-3.51,3.55l-1.47-0.16l-0.31-0.64l1.78-0.8l0.78-1.64l0.32-6.15
		l-0.63-0.32l1.09-4.88l-0.31-0.95l1.25-3.72l-0.15-2.11l0.79-0.96l0.62-1.96l-0.62-3.56l0.62-2.92l-0.31-2.28v-2.6l0.95-2.28
		l-0.48-4.56l1.26-4.2l1.47-2.11l1.78-0.49l0.31-4.88l2.57-5.04l0.63-3.4l1.41-2.28l2.89-2.6l2.25-3.86l1.63-2.6l10.73-9.4
		l4.14-2.59l1.78,0.31l0.63-0.63l0.32-0.96l-1.26-4.2l0.32-1.64l0.63-0.32l0.95,1.27l0.94,3.23l0.48,0.47l0.62-0.15l5.76-4.57
		l0.95-1.64l1.78-1.27l3.99-2.28l1.62-2.29l1.63-0.31l2.09-1.97l3.98-2.6l5.92-5.51l2.73-1.96l0.94-1.33l-0.47-1.27l0.15-0.95
		c1.13,0.62,1.73,1.14,2.82,0.17c1.8-1.6,3.76-2.74,5.69-4.18c1.14-0.85,2.25-1.74,3.38-2.61l6.55-4.03l8.96-2.77l12.31-1.8
		l0.32-0.16l0.79-1.27l-1.11-1.48l0.32-0.48h1.63l1.46-1.27l-0.63,2.59l0.78,1.27l6.39-1.27l16.34-1.64h0.31l6.7,2.6l1.47-0.32
		l2.41-0.95l5.29-3.55l9.58-2.6l5.13-0.8l3.83-0.15l0.94-0.64v-0.63l-2.88-0.17l-0.94-0.79l-0.63-0.64l-0.79-0.95l-0.47-1.28
		l2.1-9.23l0.79-0.16l0.31,0.63l0.31,2.6l7.23-2.6l3.51-0.16l3.51,0.32l8.48,2.43l0.94-3.88l0.17-0.79l1.78-1.65l3.98-1.97
		l11.52-4.03l3.04-0.63l9.12-3.87l10.27-3.56l3.82-0.32l4.98-2.91l2.57-0.64l6.08,0.64l2.72,1.48l2.25,0.47h2.1l1.46-1.11l0.79-1.49
		l-0.32-1.27l0.63-0.63l8.95-2.92l2.73-0.31l3.35-0.32l9.96-0.32l4.97,0.32l4.82,0.95l8.17,0.95l5.29,1.65l4.51,0.63h2.26h3.51
		l7.86-0.95l10.9-3.55c0.97-0.2,1.89-0.49,2.89-0.62c1.54-0.2,3.94-0.08,5.29-0.97c1.97-1.31-1.72-3.71-2.96-4.22
		c-2-0.82-4.87-0.34-7.02-0.35c-2.02-0.01-4.04,0-6.05,0l-5.3-0.95l-2.41-0.63h-2.41l-2.73,0.48l-3.04-0.64l-6.55-3.39l-13.62-10.56
		l-8.79-6.95l-8.8-8.43l-6.08-7.33l-5.45-7.64l-0.79-1.27l-6.07-10.56l-2.42-4.71l-0.94-4.73l0.47-2.43l0.79-0.64l3.35,0.64
		l0.95-0.64l0.47-1.27l-0.16-2.28l0.78-3.4l0.16-3.39l-0.63-2.92l1.26-0.32l-0.16-4.56l2.87-14.91l2.26-5.99l3.82-4.88l3.67-3.4
		l1.26-4.72l1.62,0.96l-0.31-1.49l0.47-0.63l1.94-1.32l0.79-1.44v-4.71v-0.8l1.62-3.71l9.59-14.28l6.86-9.07l6.71-6.8l0.95-0.31
		l2.72-0.96l3.51-5.83l3.19-2.91l1.47-3.88l4.66-7.96l3.82-3.71l2.42-1.65l1.78-0.95l0.78-1.65l-0.47-1.33c0,0,0.31-0.79,0.31-0.8
		c0.07-0.17-0.91-1.49-1-1.83c-0.21-0.82-0.11-1.54,0.25-2.31c0.4-0.85,0.85-1.38,1.12-2.43l0.47-1.97l1.63-2.91l6.86-6.8l1.62-1.96
		l0.32-3.08l0.15-0.16l3.2-4.19l18.75-20.42l2.57-2.6l5.29-5.2l3.51-4.03l4.97-2.6l0.32-0.8l-1.26-0.95l-2.89,0.32l-0.47-2.6
		l-2.25-2.6l0.32-2.6v-1.48l-0.79-0.95l-1.26-0.17l-1.41-1.11l-2.25-4.72l-0.79-2.91l0.15-2.6l1.42-5.84v-0.58h0.11l-0.16-0.95
		l-1.62-4.19l0.15-1.43l0.32-2.28l2.72-3.24l1.41-2.76l-0.78-2.76l2.25-5.03l2.57-2.29l3.35,0.64l4.51-7.48l0.78-2.28l-0.31-1.33
		l-2.09,0.16l-0.79-0.8l-0.32-0.95l0.64-1.65l9.95-10.55l1.94-1.81h1.41h0.47l5.13-4.56l3.51-1.96l3.04-0.64l1.1-1.27l2.88,0.64
		l2.89-1.97l-0.32-1.26h2.1l7.07-7.48l2.57-0.64l12.67,0.32l6.39,1.33l3.35-0.32l2.25,0.8l3.98,0.16h3.98l7.39,1.49l3.82-0.32
		l1.63-0.8l0.47,0.95h3.36l1.41,0.64l0.47,1.26l9.43,0.64l4.35,1.48l5.44-0.16l1.63,0.63l5.29,0.64l2.09,0.63l3.66,0.16l2.57,1.48
		l1.78,0.32l2.57,0.31l8.01,0.96l9.59,2.28l5.14,0.31l2.25,0.64h4.3l4.66,1.27h3.19l2.25-0.32l1.78,0.63l2.26-0.31l1.25,0.16
		l6.86,0.48l8.8-1.43l12.99-4.03l1.26-3.72l-1.94-10.39l-0.48-3.08l-0.31-9.23l0.94-10.88l-0.47-6.14v-5.53l-1.78-19.14l0.15-2.92
		l-0.47-1.65l-0.79-21.58l-1.62-20.27l-0.48-14.91l0.79-6.15l-1.62-1.33l1.1-2.6l0.15-3.23l-0.62-15.22l-0.16-5.2l0.31-12.31
		l-0.62-5.83l0.47-5.68v-1.48h-6.39l-2.25-1.12l-2.25-2.12l-1.63-2.28l-1.93-4.56l-0.32-1.97l1.26-1.96l2.1-1.49l2.25-2.11
		l-2.89-1.65l-2.09-0.63l-4.51-0.32l-2.88,1.27l-0.95-0.32l0.16-3.4l-0.47-2.12l-2.26-0.31l-1.94,0.31l-1.63,1.97l-2.4,1.65
		l-2.25,1.11l-0.26,0.2l-1.21-1.73l-2.56-3.55l-2.1-2.28l-2.09-4.57l-3.36-3.23l-1.41-2.92l2.25-2.59l2.25-0.64l0.94-2.92l1.47-2.59
		l2.4-2.29l1.63-0.96l-0.32-2.75l-0.47-4.4l0.46-4.48l1.53,0.82l1.94,0.96l3.82,0.95l2.41,0.32l1.62-0.32l1.47-0.16l0.47,3.08
		l1.94,2.11l1.94-1.11l1.78-0.95l1.47-2.76l1.94-3.08l1.62-0.96l1.78,0.17l2.41,0.16l2.09-0.16l1.94-0.17l4.35,0.17l-0.16-1.12
		l-0.16-1.64l1.26-19.79l-0.15-3.24l-0.64-0.31l0.47-0.95l-0.31-3.55l0.48-4.88l0.47-4.04l-0.32-4.88l0.16-5.04l-0.95-6.48
		l0.47-3.55l-1.09-7.31l-2.41-10.56l-0.62-0.48l-1.26,0.48l-0.32,0.8l-2.09-1.65l-4.14,0.15l1.1-1.64l1.25-0.48l3.51,0.16l1.47-0.32
		l0.31-0.63l-0.47-2.12l0.78-1.97l-3.35-17.18l-0.63-6v-7.96l0.79-3.08l-0.94-0.95l-2.89-1.27l1.26-1.33l-0.63-0.48l0.16-1.8
		l-1.78-6.15l-0.79-5.36l-0.18,0.01l-1.39-9.41l-2.73-9.07l-1.41-2.28l-8.17-8.6l-0.62-1.11l-1.26-3.23l-0.47,1.64h-1.26l-0.32-1.64
		l0.95-1.97l-3.82-10.71l-0.79-2.28l-0.94-9.71l0.47-14.28l0.62-2.28l1.1-4.56l0.63-7.16l1.1-5.52l3.58-11.73l0.35-0.09l0.78-3.24
		l2.57-8.43l-0.78-1.11v-0.95l1.1-1.49l0.94-2.91l-0.47-1.33l-2.09-0.32l-0.47-0.8l0.16-2.43h1.41l0.63,0.31l0.78,1.33l0.32-2.91
		v-0.48l-3.04-0.49l-1.94,1.12l-1.25-0.63l3.51-2.12h-4.98l-5.13,0.31l-3.51-0.48h-3.98l-5.13-0.63l-2.09-1.8l-0.32-2.28l1.1-3.55
		l0.79-2.92l1.42-3.55l1.25-3.23l1.62-1.65h2.25l1.41,0.8l1.47,1.96l1.63,1.49l1.94,0.63l2.88-1.28l2.09,0.48l4.5,0.17l2.72-1.97
		l1.63-2.12l1.09-2.44l0.16-2.28l-1.95-1.97h-2.87l-2.1,1.28l-2.41,1.65l-3.19,0.32l-2.72,0.31l0.47-3.55l2.72-2.91l3.67-3.88
		l1.25-1.97l0.32-2.28l-2.25-0.31l-3.36,0.63l-4.13,1.33l-0.16,2.76l-2.57,4.03l-2.26,2.6l-1.93,0.95l-0.32-1.96l-3.35-0.95h-3.04
		l-1.62-2.92l-3.04-2.75l-3.35,1.65l-2.88,1.48h-2.25l-3.04-0.32l-0.63-2.28l2.25-3.71l2.57-2.75l1.63-2.29l2.57-1.64l3.35,0.63
		l3.99,1.97l1.78-0.17l-0.78-2.43l-1.1-1.97l-0.78-2.28l0.31-2.28l0.47-2.45l-0.15-3.71l-1.94-2.28l-3.98,1.33l-1.78,1.27
		l-1.93-1.97l1.41-3.55l1.47-4.56l-0.16-1.97h-4.14l-1.94-0.95l-2.57-1.64l-2.25-3.24l0.47-4.19l0.63-1.65l1.1-1.11l2.89-0.8
		l3.19-0.95l0.79-1.28l2.25-1.65l3.67,0.63l-0.63,2.29l0.15,3.23l-0.15,1.33l-0.32,2.6l1.26,2.91l3.2,3.24l2.41-3.24l4.82-3.71
		l1.63-1.8h4.5l2.25,1.27l-1.78,4.19l-2.57,3.88l-1.41,2.28l-5.29,0.95l-2.25,1.28l-0.79,2.76l2.57,1.12l2.72,1.11l0.94,0.64
		l0.79,1.43l-0.15,3.08l0.47,1.97l1.46,2.76l2.25,1.11l1.78-2.76l0.79-2.6l1.47-3.71l1.42-0.17h1.25l3.51,0.32l1.41,0.32l1.62,0.16
		l1.47-1.8l-0.79-2.91l0.94-2.6l0.32-3.24l1.26-1.26l3.19,0.79l-0.15,3.72l1.62,2.6l0.31,2.91l0.47,2.6l2.41-0.95l0.94-0.95
		l1.78-1.65h4.66l0.15-1.11l1.47-2.45l1.42-4.88l2.57-7.48l-7.38-2.6l0.47-7.64l6.39-7.33l6.55,1.97l2.25-5.2l7.08-11.67l7.54-12.63
		l3.04-4.88l2.72-3.08l9.43-15.39l0.79-1.33l2.25-2.91l7.86-13l1.93-3.23v-0.11h0.06l0.63-1.28l0.47-0.63l1.63-2.6l1.93-4.56
		l5.93-9.71l0.94-1.97l1.93-4.88l5.14-7.47l0.15-2.29l-0.78-0.95l2.88-0.63l0.31,0.95l-4.14,7.96l-3.51,5.36l0.48,0.63l2.88-3.07
		l3.51-6.47l5.45-7.48l3.99-4.56l5.6-6.32l8.01-12.3l1.62-1.27l-0.78-3.4l1.93,0.8l1.94-2.92l-3.51-4.71l0.62-1.12l2.25,0.32
		l0.47-0.32l-0.15-1.65l-0.94-0.63l-0.16-1.43l1.62-1.81l2.57,0.49l1.26-0.32l0.15-0.64l-1.62-1.26l2.09-0.8l1.26-7.8l-1.1-0.95
		l1.1-0.95l6.54-18.14l1.78-3.4l-1.93,0.16l-1.1-0.63l-0.78-1.65l3.04,0.48l0.47-0.48l4.66-11.99l0.47-3.87l7.55-19.78l0.78-2.28
		l2.41-7.8l2.1-4.2l0.78-3.87l2.41-6.15l2.41-10.71l-0.16-1.65l-1.62-3.55l-1.94-1.65l0.47-2.28l-0.79-1.97l0.63-1.96l0.78-0.32
		l0.95,2.6l-0.79-13.47l1.1-9.93l0.95-2.91l0.78-5.2l2.56-19.31l2.73-11.19l-0.09,0l0.82-4.18l-0.78-1.49h-2.26l-1.46-0.95
		l1.93-0.95l2.73-0.32l0.95-2.12l-0.16-2.11l0.94-7.48l1.62-4.2l1.94-3.88l3.51-3.87l1.62-2.92l-0.16-1.65l-2.41-0.31l-0.63-1.33
		l0.79-4.2c0,0-0.79-2.44-0.78-2.45c2.55-6.96,5.31-13.83,7.85-20.78l1.63-7.16l2.72-8.6l-1.78,1.12l-0.94-2.45l2.41-2.6l2.72-7.16
		l1.41-4.73l0.94-3.08l0.94-8.43L1455.66,90.63z"/>
</g>
</svg>
